# AST/ASF file generated using VICON BodyLanguage
# -----------------------------------------------
:version 1.10
:name VICON
:units
  mass 1.0
  length 0.45
  angle deg
:documentation
   .ast/.asf automatically generated from VICON data using
   VICON BodyBuilder and BodyLanguage model FoxedUp or BRILLIANT.MOD
:root
   order TX TY TZ RX RY RZ
   axis XYZ
   position 0 0 0  
   orientation 0 0 0 
:bonedata
  begin
     id 1 
     name lhipjoint
     direction 0.623529 -0.717805 0.309788 
     length 2.23224 
     axis 0 0 0  XYZ
  end
  begin
     id 2 
     name lfemur
     direction 0.34202 -0.939693 0  
     length 7.11402  
     axis 0 0 20  XYZ
    dof rx ry rz
    limits (-160.0 20.0)
           (-70.0 70.0)
           (-60.0 70.0)
  end
  begin
     id 3 
     name ltibia
     direction 0.34202 -0.939693 0   
     length 6.78496   
     axis 0 0 20   XYZ
    dof rx
    limits (-10.0 170.0)
  end
  begin
     id 4 
     name lfoot
     direction 0.125078 -0.343648 0.930732   
     length 1.84054   
     axis -90 7.62852e-016 20   XYZ
    dof rx rz
    limits (-45.0 90.0)
           (-70.0 20.0)
  end
  begin
     id 5 
     name ltoes
     direction 1.53565e-011 -4.21893e-011 1   
     length 0.916474   
     axis -90 7.62852e-016 20   XYZ
    dof rx
    limits (-90.0 20.0)
  end
  begin
     id 6 
     name rhipjoint
     direction -0.564688 -0.757748 0.327026   
     length 2.11457  
     axis 0 0 0  XYZ 
  end
  begin
     id 7 
     name rfemur
     direction -0.34202 -0.939693 0   
     length 7.14609   
     axis 0 0 -20   XYZ
    dof rx ry rz
    limits (-160.0 20.0)
           (-70.0 70.0)
           (-70.0 60.0)
  end
  begin
     id 8 
     name rtibia
     direction -0.34202 -0.939693 0   
     length 6.78101   
     axis 0 0 -20   XYZ
    dof rx
    limits (-10.0 170.0)
 end
 begin
     id 9 
     name rfoot
     direction -0.0992671 -0.272734 0.956955   
     length 1.96168  
     axis -90 -7.62852e-016 -20   XYZ
    dof rx rz
    limits (-45.0 90.0)
           (-20.0 70.0)
  end
  begin
     id 10 
     name rtoes
     direction -1.5356e-011 -4.21891e-011 1   
     length 0.982933   
     axis -90 -7.62852e-016 -20   XYZ
    dof rx
    limits (-90.0 20.0)
  end
  begin
     id 11 
     name lowerback
     direction -0.00596953 0.998668 0.0512524   
     length 1.87557   
     axis 0 0 0   XYZ
    dof rx ry rz
    limits (-20.0 45.0)
           (-30.0 30.0)
           (-30.0 30.0)
  end
  begin
     id 12 
     name upperback
     direction 0.00584879 0.999652 0.0257308   
     length 1.87883   
     axis 0 0 0   XYZ
    dof rx ry rz
    limits (-20.0 45.0)
           (-30.0 30.0)
           (-30.0 30.0)
  end
  begin
     id 13 
     name thorax
     direction 0.010104 0.999947 0.00178881   
     length 1.87779   
     axis 0 0 0   XYZ
    dof rx ry rz
    limits (-20.0 45.0)
           (-30.0 30.0)
           (-30.0 30.0)
  end
  begin
     id 14 
     name lowerneck
     direction 0.0120771 0.995934 -0.0892773   
     length 1.40897   
     axis 0 0 0   XYZ
    dof rx ry rz
    limits (-20.0 45.0)
           (-30.0 30.0)
           (-30.0 30.0)
  end
  begin
     id 15 
     name upperneck
     direction -0.030568 0.999465 -0.0116366   
     length 1.38661   
     axis 0 0 0   XYZ
    dof rx ry rz
    limits (-20.0 45.0)
           (-30.0 30.0)
           (-30.0 30.0)
  end
  begin
     id 16
     name head
     direction -0.0170715 0.999854 -0.00104426  
     length 1.47052  
     axis 0 0 0   XYZ
    dof rx ry rz
    limits (-20.0 45.0)
           (-30.0 30.0)
           (-30.0 30.0)
  end
  begin
     id 17 
     name lclavicle
     direction 0.977763 0.206143 0.038532  
     length 3.02424  
     axis 0 0 0   XYZ
    dof ry rz
    limits (-20.0 10.0)
           (0.0 20.0)
  end
  begin
     id 18 
     name lhumerus
     direction 1 -4.48965e-011 -2.62654e-027   
     length 4.68382   
     axis 180 -30 -90   XYZ
    dof rx ry rz
    limits (-60.0 90.0)
           (-90.0 90.0)
           (-90.0 90.0)
  end
  begin
     id 19
     name lradius
     direction 1 -4.48973e-011 -1.54954e-027   
     length 2.98124   
     axis 180 -30 -90   XYZ
    dof rx
    limits (-10.0 170.0)
  end
  begin
     id 20
     name lwrist
     direction 1 -4.48959e-011 7.20928e-028   
     length 1.49062   
     axis -5.52449e-016 90 90   XYZ
    dof ry
    limits (-180.0 0.0)
 end
  begin
     id 21 
     name lhand
     direction 1 -4.48971e-011 1.44186e-027   
     length 0.707595   
     axis -9.20027e-016 90 90   XYZ
    dof rx rz
    limits (-90.0 90.0)
           (-45.0 45.0)
  end
  begin
     id 22 
     name lfingers
     direction 1 -4.48985e-011 2.88371e-027   
     length 0.570481   
     axis -1.84005e-015 90 90   XYZ
    dof rx
    limits (0.0 90.0)
  end
  begin
     id 23
     name lthumb
     direction 0.707107 -6.34929e-011 0.707107   
     length 0.819101   
     axis -90 45 2.85299e-015   XYZ
    dof rx rz
    limits (-45.0 45.0)
           (-45.0 45.0)
  end
  begin
     id 24 
     name rclavicle
     direction -0.958661 0.284411 -0.00895327   
     length 3.11921  
     axis 0 0 0   XYZ 
    dof ry rz
    limits (-10.0 20.0)
           (-20.0 0.0)
  end
  begin
     id 25 
     name rhumerus
     direction -1 -4.48963e-011 -4.22193e-027  
     length 4.75876   
     axis 180 30 90   XYZ
    dof rx ry rz
    limits (-90.0 60.0)
           (-90.0 90.0)
           (-90.0 90.0)
  end
  begin
     id 26 
     name rradius
     direction -1 -4.48968e-011 -1.07616e-027   
     length 2.93293   
     axis 180 30 90   XYZ
    dof rx
    limits (-10.0 170.0)
  end
  begin
     id 27 
     name rwrist
     direction -1 -4.48965e-011 7.20928e-028   
     length 1.46647   
     axis -5.52449e-016 -90 -90   XYZ
    dof ry
    limits (-180.0 0.0)
  end
  begin
     id 28
     name rhand
     direction -1 -4.48971e-011 1.44186e-027   
     length 0.831748   
     axis -9.20027e-016 -90 -90   XYZ
    dof rx rz
    limits (-90.0 90.0)
           (-45.0 45.0)
  end
  begin
     id 29
     name rfingers
     direction -1 -4.48961e-011 2.88371e-027   
     length 0.670577   
     axis -1.84005e-015 -90 -90   XYZ
    dof rx
    limits (0.0 90.0)
  end
  begin
     id 30
     name rthumb
     direction -0.707107 -6.34929e-011 0.707107   
     length 0.962818   
     axis -90 -45 -2.85299e-015   XYZ
    dof rx rz
    limits (-45.0 45.0)
           (-45.0 45.0)
  end
:hierarchy
  begin
    root lhipjoint rhipjoint lowerback
    lhipjoint lfemur
    lfemur ltibia
    ltibia lfoot
    lfoot ltoes
    rhipjoint rfemur
    rfemur rtibia
    rtibia rfoot
    rfoot rtoes
    lowerback upperback
    upperback thorax
    thorax lowerneck lclavicle rclavicle
    lowerneck upperneck
    upperneck head
    lclavicle lhumerus
    lhumerus lradius
    lradius lwrist
    lwrist lhand lthumb
    lhand lfingers
    rclavicle rhumerus
    rhumerus rradius
    rradius rwrist
    rwrist rhand rthumb
    rhand rfingers
  end

#!OML:ASF E:\id_vita\Project 1\Capture day 1\Session 1\Female.ASF
:FULLY-SPECIFIED
:DEGREES
230
root -23.7801 16.2604 0.692769 14.9331 85.6571 0.880445
lowerback -12.7748 -0.140597 -4.4154
upperback -6.06163 0.561276 1.04373
thorax 0.74427 0.494978 3.65417
lowerneck -1.34401 0.671488 -4.58516
upperneck 13.8591 -0.0976184 13.5424
head 4.3047 0.601186 4.98436
rclavicle -1.13618e-014 5.56597e-015
rhumerus -34.4793 -17.8934 -83.1795
rradius 16.0784
rwrist 28.798
rhand -12.7176 10.8021
rfingers 7.12502
rthumb 13.3655 -18.7492
lclavicle -1.13618e-014 5.56597e-015
lhumerus -43.9453 43.2182 63.4584
lradius 11.3161
lwrist -68.8177
lhand -6.14827 22.8952
lfingers 7.12502
lthumb 19.6898 51.918
rfemur -20.4139 6.33746 24.55
rtibia 25.7121
rfoot -13.9898 -19.4765
rtoes 4.44522
lfemur -23.8954 -4.31228 -16.7255
ltibia 34.0932
lfoot -25.3832 6.60284
ltoes -7.80401
231
root -23.7854 16.2537 0.70286 13.811 85.5982 -0.391752
lowerback -12.7901 -0.0899086 -4.25668
upperback -6.08418 0.611874 1.06055
thorax 0.726587 0.519035 3.58845
lowerneck -1.23199 0.652617 -4.65427
upperneck 13.8118 -0.107464 13.4446
head 4.27235 0.581232 4.96243
rclavicle -9.58515e-015 7.70291e-015
rhumerus -34.4389 -16.8995 -83.791
rradius 16.3432
rwrist 28.3474
rhand -13.3917 9.7787
rfingers 7.12502
rthumb 12.7156 -19.8142
lclavicle -9.58515e-015 7.70291e-015
lhumerus -43.8417 43.394 63.603
lradius 11.3892
lwrist -68.9659
lhand -6.10953 23.058
lfingers 7.12502
lthumb 19.7271 52.077
rfemur -20.6353 6.06207 24.707
rtibia 25.7196
rfoot -14.0378 -19.1941
rtoes 4.45027
lfemur -24.4145 -4.17874 -16.5949
ltibia 34.7133
lfoot -25.2697 6.60557
ltoes -7.2652
232
root -23.7841 16.2494 0.723188 13.6886 85.9485 -0.410076
lowerback -12.6097 -0.175321 -4.2426
upperback -6.0431 0.486239 1.03985
thorax 0.684751 0.453967 3.5404
lowerneck -1.1858 0.694469 -4.55003
upperneck 13.7905 -0.0415164 13.3286
head 4.2531 0.610205 4.90877
rclavicle -2.70906e-014 -4.47266e-015
rhumerus -34.5186 -17.9471 -83.181
rradius 16.0995
rwrist 29.1263
rhand -13.1086 10.9911
rfingers 7.12502
rthumb 12.9885 -18.5846
lclavicle -2.70906e-014 -4.47266e-015
lhumerus -43.3291 42.9941 64.2272
lradius 11.4976
lwrist -68.19
lhand -5.98545 23.7042
lfingers 7.12502
lthumb 19.8463 52.7109
rfemur -20.4658 6.06596 24.8546
rtibia 25.6815
rfoot -14.2501 -19.503
rtoes 4.99293
lfemur -24.695 -4.18016 -16.4744
ltibia 35.3341
lfoot -25.1671 6.38292
ltoes -6.83665
233
root -23.7802 16.2479 0.740164 13.8861 86.2493 0.0743241
lowerback -12.309 -0.21135 -4.14622
upperback -5.90854 0.407323 0.944343
thorax 0.67345 0.404029 3.37317
lowerneck -1.25511 0.724368 -4.49384
upperneck 13.8558 -0.00797197 13.3392
head 4.28179 0.635246 4.90586
rclavicle -1.2702e-014 -2.70844e-015
rhumerus -34.4542 -17.977 -83.3247
rradius 16.1667
rwrist 28.8078
rhand -12.7914 10.8175
rfingers 7.12502
rthumb 13.2943 -18.7385
lclavicle -1.2702e-014 -2.70844e-015
lhumerus -42.3945 42.0266 65.3515
lradius 11.5548
lwrist -67.1549
lhand -6.1567 23.9184
lfingers 7.12502
lthumb 19.6817 52.9421
rfemur -20.0662 6.04397 24.9631
rtibia 25.602
rfoot -14.2782 -19.7434
rtoes 4.96817
lfemur -24.7455 -4.39119 -16.4265
ltibia 35.9499
lfoot -25.0371 6.51363
ltoes -7.08645
234
root -23.7702 16.2442 0.756972 13.5681 86.4579 -0.0333239
lowerback -12.1201 -0.268224 -4.23292
upperback -5.80295 0.325093 1.03269
thorax 0.6874 0.359891 3.50312
lowerneck -1.36776 0.728857 -4.54911
upperneck 13.9598 0.00644676 13.194
head 4.33198 0.637096 4.87298
rclavicle -7.25253e-015 -9.54166e-015
rhumerus -34.3826 -17.4903 -83.4439
rradius 16.2287
rwrist 28.3041
rhand -12.8468 10.4517
rfingers 7.12502
rthumb 13.2408 -19.1078
lclavicle -7.25253e-015 -9.54166e-015
lhumerus -42.0881 41.8697 65.8733
lradius 11.6077
lwrist -66.7731
lhand -6.31623 23.713
lfingers 7.12502
lthumb 19.5283 52.7523
rfemur -19.7419 5.93902 25.1225
rtibia 25.5204
rfoot -13.9427 -20.0274
rtoes 3.52376
lfemur -24.845 -4.55009 -16.373
ltibia 36.5846
lfoot -24.9172 6.86852
ltoes -8.31855
235
root -23.7592 16.242 0.778261 14.2425 86.6844 0.694549
lowerback -12.0882 -0.348578 -4.36401
upperback -5.75804 0.229087 1.05385
thorax 0.724354 0.311693 3.58761
lowerneck -1.34735 0.700904 -4.52479
upperneck 13.9526 -0.0173447 13.038
head 4.32986 0.616104 4.81775
rclavicle -8.03525e-015 6.26172e-015
rhumerus -34.3783 -17.2986 -83.5494
rradius 16.2291
rwrist 28.0883
rhand -13.067 9.91578
rfingers 7.12502
rthumb 13.0287 -19.6573
lclavicle -8.03525e-015 6.26172e-015
lhumerus -41.8675 41.621 66.2622
lradius 11.7257
lwrist -66.3805
lhand -6.53844 23.6428
lfingers 7.12502
lthumb 19.3147 52.7036
rfemur -19.6163 6.02538 25.2042
rtibia 25.5006
rfoot -13.7198 -20.4575
rtoes 2.74884
lfemur -25.1496 -4.45573 -16.3672
ltibia 37.2472
lfoot -24.7071 6.83202
ltoes -8.48193
